<?xml version="1.0" standalone="no"?>
<!DOCTYPE svg PUBLIC "-//W3C//DTD SVG 20010904//EN"
 "http://www.w3.org/TR/2001/REC-SVG-20010904/DTD/svg10.dtd">
<svg version="1.0" xmlns="http://www.w3.org/2000/svg"
 width="16.000000pt" height="16.000000pt" viewBox="0 0 16.000000 16.000000"
 preserveAspectRatio="xMidYMid meet">
<metadata>
Created by potrace 1.11, written by Peter Selinger 2001-2013
</metadata>
<g transform="translate(0.000000,16.000000) scale(0.000928,-0.000928)"
fill="#000000" stroke="none">
<path d="M7929 16955 c-2 -2 -80 -6 -174 -10 -192 -7 -273 -11 -395 -20 -47
-4 -110 -8 -140 -10 -51 -3 -132 -10 -240 -20 -25 -2 -74 -7 -110 -10 -128
-12 -165 -15 -190 -20 -14 -2 -52 -7 -85 -10 -60 -6 -108 -11 -175 -20 -19 -3
-53 -7 -75 -10 -22 -2 -89 -12 -150 -20 -60 -9 -126 -18 -145 -21 -19 -2 -46
-6 -60 -9 -14 -3 -38 -7 -55 -9 -60 -10 -331 -56 -355 -61 -14 -3 -38 -8 -55
-10 -75 -13 -426 -87 -480 -101 -33 -9 -71 -18 -85 -21 -133 -23 -698 -182
-955 -268 -265 -88 -586 -211 -760 -290 -41 -19 -76 -34 -78 -33 -8 5 -434
-222 -529 -283 -123 -78 -378 -248 -378 -252 0 -1 -7 -40 -15 -87 -9 -47 -20
-110 -25 -140 -6 -30 -12 -66 -15 -80 -2 -13 -7 -40 -10 -60 -3 -20 -8 -47
-10 -60 -3 -14 -8 -41 -11 -60 -19 -121 -44 -281 -49 -315 -3 -23 -7 -50 -9
-60 -2 -11 -7 -47 -10 -80 -4 -33 -9 -67 -11 -75 -2 -8 -6 -40 -10 -71 -3 -31
-7 -65 -9 -75 -2 -11 -7 -48 -10 -84 -4 -36 -9 -76 -11 -90 -2 -14 -7 -50 -10
-80 -3 -30 -8 -72 -10 -92 -3 -21 -7 -55 -10 -75 -4 -41 -13 -119 -20 -195 -3
-27 -7 -69 -10 -95 -2 -27 -7 -72 -10 -100 -12 -120 -23 -246 -30 -333 -3 -36
-7 -90 -10 -120 -3 -30 -7 -88 -10 -127 -3 -40 -7 -103 -10 -140 -12 -179 -17
-253 -20 -313 -1 -36 -6 -121 -9 -190 -24 -449 -29 -683 -30 -1220 0 -450 6
-794 19 -1020 6 -111 16 -295 21 -375 3 -69 11 -173 19 -270 2 -27 7 -86 10
-130 3 -43 8 -93 10 -110 2 -16 6 -55 9 -85 23 -239 42 -402 61 -537 3 -21 8
-56 11 -78 9 -76 15 -120 19 -145 3 -14 7 -41 9 -60 9 -66 65 -404 86 -510 6
-30 13 -68 16 -85 2 -16 7 -38 10 -47 3 -10 1 -18 -5 -18 -13 0 -316 118 -541
210 -404 166 -727 312 -1140 516 -113 56 -206 100 -208 99 -5 -5 24 -86 88
-244 53 -133 77 -190 115 -276 34 -77 236 -550 270 -630 20 -49 46 -109 56
-133 l19 -44 -73 -72 c-39 -39 -112 -105 -162 -146 -49 -41 -92 -77 -95 -80
-5 -5 -94 -78 -130 -107 -59 -47 -274 -228 -313 -264 l-49 -44 109 -54 c59
-30 122 -60 138 -68 17 -7 37 -18 45 -23 16 -10 370 -180 376 -180 1 0 58 -26
126 -58 68 -32 202 -93 298 -136 l175 -78 0 -526 0 -526 125 -54 c435 -186
924 -371 1410 -533 195 -64 375 -123 400 -130 54 -15 51 -14 70 -21 8 -4 24
-8 35 -11 11 -3 61 -17 110 -32 50 -15 209 -60 354 -100 257 -70 265 -73 300
-111 20 -22 86 -93 146 -159 223 -242 684 -692 914 -891 19 -16 39 -34 45 -40
10 -9 226 -194 365 -313 30 -25 82 -68 115 -95 34 -26 80 -64 103 -83 39 -32
71 -57 223 -177 157 -122 477 -360 710 -526 149 -107 717 -487 857 -574 43
-27 94 -59 113 -71 64 -42 370 -225 375 -225 3 0 22 -11 43 -23 20 -13 130
-72 245 -131 l207 -107 88 42 c199 94 463 226 557 277 55 30 129 70 164 89 80
44 393 227 441 258 19 12 96 60 170 106 113 70 246 155 310 199 8 5 67 45 130
87 359 242 891 637 1130 840 14 12 88 74 165 139 77 64 147 124 156 133 9 9
38 35 65 57 27 23 63 54 79 69 17 15 77 71 135 124 58 52 224 215 370 361 231
230 333 337 490 514 100 112 136 145 165 150 45 7 338 83 411 106 17 6 40 12
50 14 10 2 42 11 69 19 116 35 171 51 180 53 100 17 1104 357 1340 454 11 4
130 52 265 105 135 54 268 107 295 119 28 13 80 35 118 51 37 15 68 33 68 39
1 6 3 238 4 516 1 278 3 510 4 517 0 6 11 15 24 19 12 3 45 17 72 29 28 13
122 56 210 95 88 40 192 87 230 105 39 18 115 54 170 80 276 130 593 289 589
297 -3 4 -98 85 -212 180 -114 95 -250 208 -302 251 -125 104 -278 245 -289
266 -9 15 36 136 108 293 11 26 21 49 21 52 0 3 12 31 26 63 36 78 36 78 174
403 115 269 214 519 208 525 -2 2 -86 -38 -188 -89 -184 -90 -307 -149 -470
-224 -173 -80 -207 -95 -310 -139 -58 -25 -123 -53 -145 -63 -131 -59 -783
-320 -799 -320 -2 0 11 71 30 158 18 86 35 169 38 185 22 119 27 145 30 163 2
12 7 39 10 60 4 22 8 46 11 54 2 8 6 35 9 60 3 25 8 56 11 69 2 14 9 60 15
103 6 43 13 92 16 110 2 18 7 51 10 73 3 22 7 56 10 75 2 19 7 53 9 75 3 22 7
56 10 75 2 19 7 66 11 105 3 38 8 78 10 89 2 11 6 54 9 95 3 42 8 94 9 116 13
146 16 189 21 260 3 44 7 112 10 150 32 503 32 1571 0 1950 -2 28 -7 109 -11
180 -3 72 -8 146 -9 165 -2 19 -7 78 -10 130 -3 52 -8 106 -10 120 -2 14 -7
68 -10 120 -3 52 -8 106 -10 120 -3 24 -9 76 -20 200 -3 30 -8 77 -11 103 -3
27 -7 67 -9 90 -2 23 -6 65 -10 92 -5 45 -10 81 -30 250 -3 28 -8 61 -10 75
-2 14 -6 48 -9 75 -8 68 -23 173 -31 215 -2 14 -7 45 -10 70 -3 25 -7 56 -9
70 -3 14 -7 43 -10 65 -2 22 -7 51 -10 65 -3 14 -8 42 -11 63 -12 87 -17 118
-35 223 -11 61 -22 129 -26 150 -6 42 -34 190 -64 349 -15 79 -67 325 -105
505 -27 125 -99 398 -108 409 -6 7 -18 16 -27 20 -8 3 -68 41 -133 84 -204
134 -452 267 -722 386 -66 29 -133 59 -150 66 -76 34 -459 182 -490 190 -5 1
-17 5 -25 8 -85 37 -693 222 -860 262 -8 2 -60 16 -115 30 -55 15 -118 30
-140 35 -22 5 -80 18 -130 30 -136 32 -508 109 -610 126 -49 8 -115 19 -145
24 -30 5 -73 12 -95 15 -22 4 -47 8 -55 10 -8 3 -35 7 -60 10 -25 3 -56 7 -70
10 -44 9 -74 14 -130 20 -30 4 -86 11 -125 16 -38 5 -92 12 -120 15 -27 2 -59
6 -70 9 -11 2 -47 7 -80 10 -33 3 -73 7 -90 10 -16 2 -61 6 -100 10 -38 3 -83
8 -100 10 -16 2 -66 6 -110 10 -44 3 -93 8 -110 10 -16 2 -75 7 -130 10 -55 4
-122 8 -150 10 -27 2 -102 6 -165 9 -63 4 -155 9 -205 12 -98 7 -1321 15
-1326 9z"/>
</g>
</svg>
